<?xml version="1.0" standalone="no"?>
<!DOCTYPE svg PUBLIC "-//W3C//DTD SVG 20010904//EN"
 "http://www.w3.org/TR/2001/REC-SVG-20010904/DTD/svg10.dtd">
<svg version="1.0" xmlns="http://www.w3.org/2000/svg"
 width="200.000000pt" height="200.000000pt" viewBox="0 0 200.000000 200.000000"
 preserveAspectRatio="xMidYMid meet">

<g transform="translate(0.000000,200.000000) scale(0.100000,-0.100000)"
fill="#000000" stroke="none">
<path d="M850 1158 c0 -44 -1 -44 -42 -54 -54 -12 -80 -46 -80 -106 0 -50 22
-102 47 -112 24 -9 68 -7 85 4 9 5 19 5 27 -1 6 -6 22 -9 35 -7 29 4 39 56 14
73 -12 9 -16 37 -18 126 l-3 114 -32 3 c-33 3 -33 3 -33 -40z m-5 -164 c0 -27
-4 -39 -14 -39 -25 0 -36 31 -23 60 17 37 37 26 37 -21z"/>
<path d="M1690 1041 l0 -161 35 0 35 0 1 53 1 52 24 -52 c25 -52 26 -53 71
-53 l45 0 -36 65 -36 66 25 37 c34 50 33 64 -7 60 -26 -2 -39 -12 -58 -42
l-25 -39 -5 84 -5 84 -32 3 -33 3 0 -160z"/>
<path d="M110 1108 c0 -46 -3 -113 -6 -149 -6 -63 -5 -67 15 -74 13 -4 33 -4
46 -1 23 6 24 11 27 94 l3 87 30 -90 c27 -81 32 -90 55 -90 23 0 28 9 55 90
l30 90 3 -70 c3 -107 7 -115 47 -115 18 0 37 5 40 10 3 6 3 75 -1 155 l-7 146
-61 -3 -61 -3 -19 -67 c-11 -38 -22 -68 -26 -68 -3 0 -16 32 -29 70 l-22 70
-60 0 -59 0 0 -82z"/>
<path d="M992 1038 l3 -153 77 -3 c75 -3 78 -2 84 22 11 44 -3 66 -42 66 l-34
0 0 110 0 110 -45 0 -46 0 3 -152z"/>
<path d="M560 1098 c-66 -35 -77 -140 -19 -192 28 -25 37 -28 81 -24 51 5 70
20 61 46 -4 10 -16 13 -43 8 -27 -4 -41 -2 -50 9 -11 13 -7 15 23 15 103 0
110 131 6 146 -19 2 -45 -1 -59 -8z m60 -73 c0 -8 -9 -15 -20 -15 -20 0 -26
11 -13 23 12 13 33 7 33 -8z"/>
<path d="M1180 1101 c0 -5 16 -53 35 -106 33 -92 34 -98 20 -132 -23 -55 -20
-63 24 -63 l38 0 51 147 c28 80 49 150 46 155 -3 4 -20 8 -38 8 -31 0 -34 -3
-46 -47 -19 -70 -22 -71 -39 -12 -16 52 -18 54 -54 57 -20 2 -37 -1 -37 -7z"/>
<path d="M1430 1086 c-10 -27 -4 -56 11 -56 4 0 9 -33 11 -72 l3 -73 35 0 35
0 5 75 c4 58 8 75 20 75 12 0 16 -17 18 -77 l3 -78 34 0 35 0 0 95 c0 83 -3
98 -21 116 -17 17 -28 20 -57 15 -51 -9 -73 -9 -99 -1 -18 6 -24 2 -33 -19z"/>
</g>
</svg>
